HIERARCHY
ROOT Hips
{
	OFFSET 0.000000 0.000000 0.000000
	CHANNELS 6 Xposition Yposition Zposition Zrotation Yrotation Xrotation 
	JOINT LHipJoint
	{
		OFFSET 0.000000 0.000000 0.000000
		CHANNELS 3 Zrotation Yrotation Xrotation
		JOINT LeftUpLeg
		{
			OFFSET 1.363060 -1.794630 0.839290
			CHANNELS 3 Zrotation Yrotation Xrotation
			JOINT LeftLeg
			{
				OFFSET 2.448110 -6.726130 0.000000
				CHANNELS 3 Zrotation Yrotation Xrotation
				JOINT LeftFoot
				{
					OFFSET 2.562200 -7.039590 0.000000
					CHANNELS 3 Zrotation Yrotation Xrotation
					JOINT LeftToeBase
					{
						OFFSET 0.157640 -0.433110 2.322550
						CHANNELS 3 Zrotation Yrotation Xrotation
						End Site
						{
							OFFSET 0.000000 0.000000 0.000000
						}
					}
				}
			}
		}
	}
	JOINT RHipJoint
	{
		OFFSET 0.000000 0.000000 0.000000
		CHANNELS 3 Zrotation Yrotation Xrotation
		JOINT RightUpLeg
		{
			OFFSET -1.305520 -1.794630 0.839290
			CHANNELS 3 Zrotation Yrotation Xrotation
			JOINT RightLeg
			{
				OFFSET -2.542530 -6.985550 0.000000
				CHANNELS 3 Zrotation Yrotation Xrotation
				JOINT RightFoot
				{
					OFFSET -2.568260 -7.056230 0.000000
					CHANNELS 3 Zrotation Yrotation Xrotation
					JOINT RightToeBase
					{
						OFFSET -0.164730 -0.452590 2.363150
						CHANNELS 3 Zrotation Yrotation Xrotation
						End Site
						{
							OFFSET 0.000000 0.000000 0.000000
						}
					}
				}
			}
		}
	}
}
MOTION
Frames: 25
Frame Time: 0.008333
5.941741 16.402533 0.825872 21.711237 77.238959 26.665999 -8.958073 0.325823 1.414233 -17.693142 -0.520115 -36.762988 -1.582548 1.415913 38.311288 1.570317 8.101082 -8.647832 -0.099200 0.000000 -13.669500 12.534976 -3.900723 -2.062846 -7.011575 -14.054320 -2.071161 -0.712940 -3.998826 52.242741 -1.025655 8.368507 27.348677 5.315700 -0.000001 -77.966600
6.115750 16.349237 0.834909 23.489891 77.099748 28.090040 -8.813464 0.385535 1.126261 -18.549253 -0.111188 -36.305818 -1.608584 1.501603 39.910588 1.633430 8.118633 -10.340223 -0.405100 -0.000000 -13.150901 12.814005 -3.655289 -2.230721 -8.037153 -14.379241 -3.674485 -0.932477 -4.226020 55.998442 -1.341436 5.081707 27.468245 3.624700 0.000000 -74.077801
6.286427 16.299203 0.842382 25.161195 76.961281 29.381970 -8.668739 0.454083 0.842088 -19.357798 0.279827 -35.673032 -1.645709 1.573273 41.262313 1.701885 8.138796 -12.038723 -0.718200 0.000000 -12.726100 13.073661 -3.389536 -2.414510 -8.984054 -14.664297 -5.242144 -1.160181 -4.473258 59.625305 -1.667765 1.299053 26.877407 1.614400 0.000000 -69.919000
6.454763 16.253902 0.848527 26.759844 76.842739 30.587885 -8.524495 0.530002 0.570987 -20.112377 0.618264 -34.877304 -1.689667 1.632416 42.368005 1.773955 8.166742 -13.672764 -1.026200 -0.000000 -12.414000 13.314854 -3.110947 -2.610045 -9.849087 -14.919819 -6.774579 -1.398448 -4.737615 63.067527 -1.995784 -2.691218 25.568814 -0.455500 0.000000 -65.432900
6.621760 16.214784 0.853594 28.308121 76.758804 31.743905 -8.381839 0.611832 0.320898 -20.806918 0.880898 -33.939913 -1.736672 1.680662 43.234623 1.846883 8.203536 -15.181472 -1.317500 0.000000 -12.221600 13.537197 -2.827092 -2.810762 -10.624335 -15.151444 -8.277446 -1.646204 -5.012574 66.269075 -2.312204 -6.578092 23.600335 -2.317401 0.000000 -60.588600
6.788341 16.183067 0.857911 29.823789 76.719681 32.884233 -8.241180 0.698303 0.097719 -21.439275 1.054376 -32.888828 -1.784109 1.719660 43.873891 1.917640 8.247304 -16.520839 -1.582900 0.000000 -12.140300 13.740002 -2.544123 -3.009132 -11.300811 -15.363133 -9.761844 -1.898173 -5.288906 69.180606 -2.600674 -10.080195 21.088952 -3.757100 -0.000000 -55.409600
6.955394 16.159842 0.861832 31.313819 76.731062 34.030882 -8.103425 0.788502 -0.094289 -22.007766 1.137692 -31.753513 -1.830772 1.750433 44.296463 1.983035 8.292234 -17.664047 -1.815000 -0.000000 -12.148299 13.921424 -2.267212 -3.196554 -11.866384 -15.555731 -11.239832 -2.144838 -5.555578 71.761292 -2.844052 -12.987084 18.192014 -4.655700 0.000001 -49.979400
7.123586 16.145936 0.865743 32.777492 76.793928 35.195639 -7.969959 0.881774 -0.253511 -22.510048 1.141394 -30.560828 -1.876986 1.773484 44.512330 2.040114 8.328851 -18.603476 -2.009200 0.000000 -12.213900 14.078898 -1.999791 -3.365474 -12.308116 -15.729092 -12.722334 -2.373644 -5.801650 73.981562 -3.026216 -15.170026 15.079086 -4.997900 0.000000 -44.427400
7.293578 16.141836 0.869968 34.206247 76.906598 36.378127 -7.842913 0.977836 -0.379787 -22.942948 1.084496 -29.330943 -1.924290 1.788421 44.527170 2.086458 8.345431 -19.347291 -2.163300 0.000000 -12.302800 14.209310 -1.744916 -3.509401 -12.613540 -15.882192 -14.214838 -2.570837 -6.017597 75.821812 -3.133896 -16.574901 11.911338 -4.854500 -0.000000 -38.912700
7.465807 16.147668 0.874795 35.585545 77.060946 37.568738 -7.724596 1.076323 -0.476937 -23.303728 0.992700 -28.076375 -1.975527 1.794567 44.342335 2.120587 8.330376 -19.917502 -2.278100 0.000001 -12.382900 14.309690 -1.503425 -3.625444 -12.774506 -16.012150 -15.718245 -2.723913 -6.196555 77.272475 -3.157938 -17.204489 8.826668 -4.350900 0.000000 -33.614400
7.640667 16.163407 0.880413 36.897427 77.252063 38.745612 -7.618412 1.177216 -0.546330 -23.586348 0.892521 -26.797645 -2.033425 1.789814 43.952409 2.141567 8.272371 -20.341667 -2.355700 0.000001 -12.430001 14.377177 -1.279038 -3.709297 -12.783849 -16.114803 -17.224591 -2.822774 -6.333562 78.328148 -3.094915 -17.106525 5.939510 -3.635400 0.000000 -28.729900
7.818441 16.188560 0.886851 38.116433 77.469622 39.880125 -7.527465 1.279538 -0.593453 -23.786843 0.808616 -25.489816 -2.100966 1.772307 43.349670 2.149568 8.164350 -20.651168 -2.400300 -0.000000 -12.430000 14.409554 -1.072647 -3.760812 -12.640233 -16.181871 -18.723645 -2.861658 -6.426314 78.991153 -2.947825 -16.360712 3.338774 -2.848200 0.000001 -24.476800
7.999410 16.222525 0.894013 39.209685 77.705725 40.930926 -7.455642 1.382139 -0.621409 -23.899604 0.761700 -24.140971 -2.179995 1.739448 42.523976 2.145150 8.002520 -20.873448 -2.416100 0.000000 -12.382400 14.404878 -0.886789 -3.778203 -12.343017 -16.202045 -20.201890 -2.839191 -6.473634 79.267470 -2.727254 -15.077275 1.090078 -2.102100 0.000001 -21.089100
8.183720 16.264481 0.901647 40.141704 77.953377 41.853279 -7.406433 1.483090 -0.632954 -23.920350 0.764451 -22.737129 -2.271086 1.688639 41.465585 2.129352 7.788267 -21.028720 -2.407700 -0.000000 -12.300499 14.362001 -0.722785 -3.760708 -11.895740 -16.162863 -21.644695 -2.758595 -6.475649 79.168429 -2.451115 -13.391945 -0.767678 -1.469100 -0.000000 -18.785799
8.371601 16.313425 0.909347 40.869509 78.207209 42.598714 -7.383547 1.579568 -0.630858 -23.845608 0.820887 -21.267832 -2.373080 1.617786 40.170113 2.103401 7.527969 -21.127456 -2.378300 0.000001 -12.211200 14.279634 -0.579888 -3.709522 -11.302666 -16.052820 -23.040885 -2.626614 -6.433499 78.710322 -2.143044 -11.460652 -2.232773 -0.978500 -0.000000 -17.690000
8.563103 16.368461 0.916649 41.351815 78.465233 43.115739 -7.390272 1.669119 -0.614657 -23.672343 0.927313 -19.719737 -2.482677 1.524812 38.633952 2.068436 7.233626 -21.165957 -2.330300 0.000000 -12.153001 14.157068 -0.457839 -3.625342 -10.570483 -15.864533 -24.375271 -2.451753 -6.348877 77.910090 -1.829376 -9.449867 -3.339498 -0.626000 0.000000 -17.785600
8.758356 16.428391 0.922988 41.545143 78.727159 43.360390 -7.429797 1.749052 -0.583751 -23.399753 1.071526 -18.096900 -2.594718 1.409280 36.870458 2.025491 6.919622 -21.134110 -2.265500 -0.000000 -12.168600 13.993431 -0.353856 -3.511693 -9.705347 -15.596815 -25.644196 -2.242667 -6.225172 76.793412 -1.534344 -7.519439 -4.178400 -0.385200 -0.000000 -18.701200
8.957288 16.492390 0.927849 41.406793 78.996511 43.285485 -7.505463 1.817672 -0.536182 -23.025259 1.238407 -16.401239 -2.702320 1.271614 34.894921 1.975135 6.603616 -21.009866 -2.184400 0.000000 -12.304100 13.787769 -0.266285 -3.372165 -8.712476 -15.250649 -26.835383 -2.007166 -6.065253 75.377086 -1.278454 -5.814208 -4.830953 -0.229200 -0.000001 -20.164800
9.159862 16.559302 0.930935 40.909980 79.277917 42.867853 -7.617951 1.874987 -0.468003 -22.552780 1.406739 -14.654710 -2.797700 1.114341 32.742720 1.918254 6.303839 -20.772242 -2.088400 0.000000 -12.589199 13.541357 -0.192895 -3.210638 -7.600692 -14.835806 -27.948900 -1.750898 -5.874239 73.686868 -1.074151 -4.439726 -5.422630 -0.130800 0.000000 -21.458100
9.365807 16.628414 0.931870 40.012234 79.577471 42.067194 -7.769915 1.921841 -0.378979 -21.980353 1.563906 -12.879589 -2.873128 0.941957 30.453318 1.854579 6.033409 -20.397448 -1.977500 -0.000000 -13.054800 13.254049 -0.132177 -3.031642 -6.374849 -14.355910 -28.971705 -1.479641 -5.654692 71.727230 -0.930399 -3.472074 -5.993733 -0.073500 0.000000 -22.486600
9.574801 16.698703 0.930846 38.708448 79.901526 40.884108 -7.958197 1.962034 -0.266775 -21.316431 1.696885 -11.112235 -2.922194 0.760839 28.082651 1.784595 5.802062 -19.871837 -1.852500 0.000000 -13.699701 12.930538 -0.082832 -2.837277 -5.049136 -13.823511 -29.900468 -1.197521 -5.410877 69.505953 -0.850052 -2.938014 -6.595098 -0.040900 -0.000001 -22.880800
9.786320 16.769446 0.928099 36.987640 80.255520 39.310429 -8.179892 2.000286 -0.134066 -20.566698 1.807518 -9.387316 -2.940964 0.578966 25.688661 1.707647 5.608017 -19.187694 -1.712900 -0.000001 -14.521399 12.575428 -0.043940 -2.630506 -3.639171 -13.248658 -30.721220 -0.909144 -5.145220 67.013953 -0.833967 -2.830551 -7.212213 -0.020101 0.000000 -22.664600
9.999791 16.839727 0.924263 34.870210 80.643189 37.367705 -8.427532 2.042790 0.015185 -19.743685 1.905413 -7.738518 -2.928850 0.404713 23.331454 1.623228 5.441208 -18.348518 -1.558500 -0.000000 -15.498900 12.196956 -0.014966 -2.412941 -2.169948 -12.646649 -31.420581 -0.618973 -4.860321 64.239090 -0.879804 -3.106705 -7.809144 -0.001300 -0.000001 -21.892500
10.214487 16.908994 0.919727 32.322501 81.066894 35.017627 -8.699431 2.094907 0.168867 -18.844056 2.029089 -6.193948 -2.888310 0.246963 21.068199 1.527662 5.267810 -17.364475 -1.386400 0.000000 -16.647900 11.799596 0.003287 -2.189682 -0.656719 -12.028497 -31.971977 -0.330771 -4.556486 61.158177 -0.982646 -3.701997 -8.328360 0.018600 0.000000 -20.690100
10.429721 16.976234 0.915724 29.422957 81.525642 32.333213 -8.981190 2.162516 0.320796 -17.893651 2.196000 -4.772357 -2.825499 0.111713 18.944192 1.421192 5.066643 -16.257176 -1.199500 0.000000 -17.930800 11.396863 0.011332 -1.961119 0.860351 -11.417779 -32.363669 -0.048565 -4.235541 57.759861 -1.133037 -4.529392 -8.705484 0.033600 0.000000 -19.252299
